<svg id="Capa_1" enable-background="new 0 0 512.001 512.001" height="512" viewBox="0 0 512.001 512.001" width="512" xmlns="http://www.w3.org/2000/svg"><g><g><path d="m325 340h-45.775l-74.225 17-74.225-17h-45.775c-46.869 0-85 38.131-85 85v72c0 8.284 6.716 15 15 15h164.225l19.775-19 31.775 19h96.225l83-15v-72c0-46.869-38.131-85-85-85z" fill="#08475e"/><g><path d="m325 340h-45.775l-74.225 17v139.588l25.775 15.412h96.225l83-15v-72c0-46.869-38.131-85-85-85z" fill="#001737"/></g><path d="m154.197 423.149 25.028 88.851h51.55l25.028-88.851z" fill="#aed0ff"/><g><path d="m255.803 423.149h-50.803v88.851h25.775z" fill="#6aa9ff"/></g><path d="m245 340v-32.061c0-8.284-6.716-15-15-15h-50c-8.284 0-15 6.716-15 15v32.061h-34.225l23.422 83.149c14.423 10.818 32.093 16.851 50.803 16.851s36.38-6.034 50.803-16.851l23.422-83.149z" fill="#ffcbbc"/><g><path d="m245 340v-32.061c0-8.284-6.716-15-15-15h-25v147.061c18.71 0 36.38-6.034 50.803-16.851l23.422-83.149z" fill="#f9a58b"/></g><g><g><g><path d="m297.499 174c-.104 0-.208-.001-.312-.003l-192.498-4c-8.161-.17-14.689-6.834-14.689-14.997v-38.377c0-19.532 9.579-37.324 24.968-48.146l-23.384-46.769c-2.325-4.649-2.076-10.172.657-14.594s7.561-7.114 12.759-7.114h90c25.655 0 50.312 7.719 71.303 22.322 20.497 14.258 36.115 34.045 45.167 57.221.679 1.739 1.027 3.59 1.027 5.457v74c0 4.032-1.623 7.895-4.504 10.716-2.805 2.749-6.575 4.284-10.494 4.284z" fill="#1766a0"/></g><g><path d="m311.471 79.543c-9.052-23.176-24.67-42.963-45.167-57.221-18.249-12.695-39.268-20.179-61.304-21.921v171.68l92.187 1.916c.104.002.208.003.312.003 3.919 0 7.688-1.535 10.495-4.284 2.881-2.822 4.504-6.684 4.504-10.716v-74c0-1.867-.349-3.718-1.027-5.457z" fill="#08475e"/></g><g><path d="m100 140h25c8.284 0 15 6.716 15 15v30c0 8.284-6.716 15-15 15h-25c-16.569 0-30-13.431-30-30 0-16.568 13.431-30 30-30z" fill="#ffcbbc"/></g><g><path d="m340 170c0 16.569-13.431 30-30 30h-40v-60h40c16.569 0 30 13.432 30 30z" fill="#f9a58b"/></g><g><g><path d="m300 219.995v-79.995h-15.134l-.877.038c-10.938.474-19.481-8.694-19.003-19.631.369-8.445-6.368-15.407-14.731-15.407h-90.509c-8.144 0-14.745 6.602-14.745 14.745v.255c0 11.08-9.057 20.085-20.156 19.999l-14.845.001h14.844-14.844v79.995c0 52.467 42.533 95 95 95 52.467 0 95-42.533 95-95z" fill="#ffddce"/></g></g><path d="m205 314.995c52.467 0 95-42.533 95-95v-79.995h-15.134l-.877.038c-10.938.474-19.481-8.693-19.003-19.631.369-8.445-6.368-15.407-14.731-15.407h-45.255z" fill="#ffcbbc"/><g><path d="m205 269.999c-14.75 0-26.203-8.267-32.002-16.003-4.969-6.628-3.624-16.03 3.005-20.999 6.622-4.965 16.01-3.626 20.984 2.984.188.239 3.235 4.018 8.013 4.018.176-.003 5.102-.135 8-4 4.971-6.626 14.372-7.971 21-3 6.627 4.97 7.971 14.373 3 21-8.848 11.797-22.331 16-32 16z" fill="#ffcbbc"/></g><g><path d="m234 232.999c-6.628-4.971-16.029-3.626-21 3-2.898 3.865-7.824 3.997-8 4v30c9.669 0 23.152-4.203 32-16 4.971-6.627 3.627-16.029-3-21z" fill="#f9a58b"/></g></g></g></g><g><g><g><path d="m455.793 452-43.793 30-43.793-30 25.809-113.521 17.984-20 17.984 20z" fill="#ffb454"/></g></g><g><path d="m429.984 338.48-17.984-20v163.52l43.793-30z" fill="#ff8659"/></g><g><path d="m464.531 387.68c-2.388 0-4.784-.569-6.979-1.723l-45.552-23.948-45.553 23.948c-5.054 2.657-11.177 2.215-15.797-1.142-4.619-3.356-6.933-9.043-5.967-14.671l8.7-50.724-36.853-35.923c-4.088-3.985-5.56-9.946-3.796-15.376 1.765-5.43 6.459-9.388 12.109-10.209l50.93-7.4 22.776-46.15c2.527-5.12 7.742-8.361 13.451-8.361s10.924 3.242 13.451 8.361l22.776 46.15 50.93 7.4c5.65.821 10.344 4.779 12.109 10.209 1.764 5.43.292 11.391-3.796 15.376l-36.853 35.923 8.7 50.724c.965 5.627-1.348 11.315-5.967 14.671-2.614 1.899-5.709 2.865-8.819 2.865z" fill="#ffea98"/></g><g><path d="m511.266 268.121c-1.765-5.43-6.459-9.388-12.109-10.209l-50.93-7.4-22.776-46.15c-2.527-5.12-7.742-8.362-13.451-8.362v166.008l45.553 23.948c2.194 1.154 4.591 1.723 6.979 1.723 3.11 0 6.205-.966 8.818-2.865 4.619-3.356 6.933-9.043 5.967-14.671l-8.7-50.724 36.853-35.923c4.089-3.984 5.56-9.944 3.796-15.375z" fill="#ffb454"/></g><path d="m497 512h-170c-8.284 0-15-6.716-15-15v-10c0-19.33 15.67-35 35-35h130c19.33 0 35 15.67 35 35v10c0 8.285-6.716 15-15 15z" fill="#ffea98"/><g><path d="m477 452h-65v60h85c8.284 0 15-6.716 15-15v-10c0-19.33-15.67-35-35-35z" fill="#ffb454"/></g></g></g></svg>