<svg height="512pt" viewBox="-1 0 512 512.0038" width="512pt" xmlns="http://www.w3.org/2000/svg"><path d="m133.394531 512.003906v-88h-80v-104h-40l56-104v-24c0-101.621094 82.378907-184 184-184 101.621094 0 184 82.378906 184 184 0 66.589844-26.453125 130.449219-73.535156 177.535156l-54.464844 54.464844v88zm0 0" fill="#ffdecf"/><path d="m501.394531 104.003906c-.015625-45.523437-32-84.78125-76.585937-93.988281-44.585938-9.207031-89.503906 14.167969-107.550782 55.964844-24.621093-16.808594-58.09375-11.382813-76.140624 12.339843-18.050782 23.722657-14.351563 57.429688 8.414062 76.675782-24.851562 16.558594-34.90625 48.125-24.21875 76.007812 10.691406 27.882813 39.273438 44.632813 68.824219 40.335938 14.511719 27.671875 44.492187 43.625 75.550781 40.207031s56.847656-25.515625 64.996094-55.679687c.902344 0 1.789062.136718 2.710937.136718 24.425781.027344 46.730469-13.867187 57.476563-35.800781s8.054687-48.074219-6.933594-67.359375c8.804688-14.769531 13.457031-31.644531 13.457031-48.839844zm0 0" fill="#91e8ed"/><path d="m365.394531 128.003906c0 13.253906-10.746093 24-24 24-13.253906 0-24-10.746094-24-24s10.746094-24 24-24c13.253907 0 24 10.746094 24 24zm0 0" fill="#ffea00"/><path d="m469.394531 360.003906c-6.148437.007813-12.160156 1.796875-17.3125 5.152344-4.175781-3.320312-9.351562-5.136719-14.6875-5.152344-10.652343.042969-20 7.097656-22.957031 17.328125-2.960938 10.230469 1.175781 21.1875 10.15625 26.910157-2.070312 3.578124-3.171875 7.628906-3.199219 11.761718-.019531 11.703125 8.421875 21.703125 19.960938 23.648438 11.539062 1.945312 22.792969-4.730469 26.613281-15.792969.480469 0 .9375.144531 1.425781.144531 17.671875 0 32-14.328125 32-32s-14.328125-32-32-32zm0 0" fill="#00c3ff"/><path d="m317.394531 184.003906-68.730469 76.359375c13.171876 9.394531 29.46875 13.328125 45.472657 10.976563 11.660156 22.308594 33.628906 37.371094 58.640625 40.210937 25.007812 2.839844 49.796875-6.917969 66.160156-26.042969zm0 0" fill="#9ccc65"/><path d="m434.683594 255.867188c.902344 0 1.789062.136718 2.710937.136718 18.863281.007813 36.765625-8.320312 48.902344-22.761718l-64.902344-89.238282-113.417969 145.824219c19.136719 19.128906 47.023438 26.597656 73.15625 19.59375 26.132813-7.003906 46.546876-27.417969 53.550782-53.554687zm0 0" fill="#9ccc65"/><path d="m397.394531 48.003906h88v16h-88zm0 0" fill="#fff"/><path d="m381.394531 80.003906h96v16h-96zm0 0" fill="#fff"/><path d="m509.394531 104.003906c.019531-39.65625-22.527343-75.871094-58.117187-93.355468-35.59375-17.484376-78.035156-13.195313-109.410156 11.058593-59.496094-30.992187-130.855469-28.65625-188.199219 6.160157-57.339844 34.816406-92.328125 97.054687-92.273438 164.136718v21.984375l-61.394531 114.015625h45.394531v104h80v80h16v-80h43.3125l74.34375-74.34375-11.3125-11.3125-69.65625 69.65625h-116.6875v-104h-34.609375l50.609375-93.984375v-26.015625c0-60.433594 31.011719-116.640625 82.132813-148.875 51.125-32.230468 115.207031-35.976562 169.738281-9.925781-6.03125 6.476563-11.214844 13.695313-15.421875 21.480469-27.40625-13.585938-60.589844-5.882813-79.207031 18.386718-18.617188 24.265626-17.460938 58.3125 2.757812 81.261719-22.257812 19.902344-29.921875 51.472657-19.269531 79.363281 10.652344 27.890626 37.414062 46.3125 67.269531 46.308594 1.414063 0 2.863281-.046875 4.375-.160156 22.453125 36.855469 69.242188 50.601562 108.0625 31.753906-10.765625 19.152344-24.105469 36.746094-39.636719 52.285156l-56.800781 56.800782v91.320312h16v-84.6875l52.121094-52.113281c24.640625-24.621094 44.03125-53.992187 56.992187-86.328125 6.074219-7.441406 10.824219-15.871094 14.039063-24.925781 38.484375-1.738281 68.804687-33.421875 68.847656-71.945313.03125-14.128906-4.144531-27.949218-12-39.695312 7.855469-14.890625 11.976563-31.46875 12-48.304688zm-208.175781 163.609375-2.617188-4.953125-5.542968.75c-10.886719 1.628906-22.011719-.113281-31.878906-4.992187l56.519531-62.789063 30.046875 30.039063-40.183594 51.65625c-2.390625-3.050781-4.511719-6.300781-6.34375-9.710938zm136.175781-19.609375-8.761719-.40625-1.671874 6.183594c-5.980469 22.152344-22.742188 39.792969-44.5625 46.894531-21.824219 7.097657-45.757813 2.699219-63.628907-11.695312l102.398438-131.671875 54.730469 75.246094c-10.371094 9.910156-24.160157 15.441406-38.503907 15.449218zm44.222657-90.265625c13.851562 17.761719 15.640624 42.117188 4.535156 61.714844l-64.542969-88.753906-64 82.242187-40.550781-40.5625-69.265625 77c-12.742188-11.519531-19.472657-28.261718-18.257813-45.394531s10.242188-32.757813 24.484375-42.363281l8.796875-5.960938-8.152344-6.808594c-19.421874-16.515624-22.546874-45.335937-7.109374-65.628906 15.433593-20.292968 44.042968-24.976562 65.144531-10.667968l8 5.601562 3.894531-9c12.796875-30.359375 41.480469-51.027344 74.332031-53.558594 32.847657-2.527344 64.359375 13.503906 81.65625 41.542969 17.296875 28.042969 17.480469 63.394531.476563 91.613281l-2.777344 4.691406zm0 0"/><path d="m341.394531 96.003906c-17.671875 0-32 14.328125-32 32s14.328125 32 32 32 32-14.328125 32-32-14.328125-32-32-32zm0 48c-8.835937 0-16-7.164062-16-16 0-8.835937 7.164063-16 16-16 8.835938 0 16 7.164063 16 16 0 8.835938-7.164062 16-16 16zm0 0"/><path d="m469.394531 352.003906c-5.875 0-11.671875 1.308594-16.976562 3.832032-4.605469-2.519532-9.773438-3.835938-15.023438-3.832032-12.9375.023438-24.589843 7.832032-29.527343 19.792969-4.933594 11.960937-2.183594 25.714844 6.976562 34.855469-.960938 3.023437-1.449219 6.179687-1.449219 9.351562-.027343 14.507813 9.726563 27.207032 23.75 30.925782 14.019531 3.71875 28.789063-2.480469 35.953125-15.09375 21.296875-1.957032 37.285156-20.320313 36.296875-41.6875-.992187-21.363282-18.613281-38.167969-40-38.144532zm.34375 64-7.351562-.433594-1.976563 5.648438c-2.523437 7.386719-10.027344 11.859375-17.722656 10.5625-7.699219-1.292969-13.324219-7.972656-13.292969-15.777344.023438-2.75.769531-5.445312 2.160157-7.816406l3.75-6.625-6.398438-4.078125c-5.007812-3.121094-7.882812-8.753906-7.464844-14.640625.414063-5.886719 4.050782-11.0625 9.449219-13.445312 5.394531-2.386719 11.671875-1.59375 16.304687 2.0625l4.480469 3.503906 4.796875-3.097656c8.574219-5.558594 19.722656-5.082032 27.789063 1.191406 8.066406 6.269531 11.277343 16.957031 8.003906 26.632812-3.273437 9.679688-12.3125 16.226563-22.527344 16.3125zm0 0"/><path d="m437.394531 496.003906h16v16h-16zm0 0"/><path d="m437.394531 464.003906h16v16h-16zm0 0"/></svg>