<svg id="Layer_1" enable-background="new 0 0 256 256" height="512" viewBox="0 0 256 256" width="512" xmlns="http://www.w3.org/2000/svg"><g><g><path d="m185.805 89.291c-5.571-8.319-17.638-11.091-32.433-8.816-6.342-13.559-15.36-22.043-25.372-22.043s-19.029 8.485-25.372 22.043c-14.795-2.274-26.862.497-32.433 8.816-6.344 9.474-2.844 23.997 7.734 38.709-10.578 14.712-14.078 29.235-7.734 38.709 5.571 8.319 17.638 11.091 32.433 8.817 6.342 13.559 15.36 22.043 25.372 22.043s19.029-8.485 25.372-22.043c14.795 2.274 26.862-.497 32.433-8.817 6.344-9.474 2.844-23.997-7.734-38.709 10.578-14.712 14.078-29.235 7.734-38.709z" fill="#fcc24c"/></g><g><g><path d="m185.805 89.291c-4.163-6.217-11.956-9.333-21.803-9.563 6.008 1.427 10.774 4.3 13.734 8.72 5.74 8.572 3.593 21.188-4.477 34.401-1.927 3.156-1.927 7.146 0 10.302 8.07 13.213 10.217 25.829 4.477 34.401-2.96 4.42-7.726 7.294-13.734 8.72 9.847-.23 17.64-3.346 21.803-9.563 6.344-9.474 2.844-23.997-7.734-38.709 10.578-14.712 14.078-29.235 7.734-38.709z" fill="#dea42e"/></g></g><g><g><path d="m70.195 89.291c4.163-6.217 11.956-9.333 21.803-9.563-6.008 1.427-10.774 4.3-13.734 8.72-5.74 8.572-3.593 21.188 4.477 34.401 1.927 3.156 1.927 7.146 0 10.302-8.07 13.213-10.217 25.829-4.477 34.401 2.96 4.42 7.726 7.294 13.734 8.72-9.847-.23-17.64-3.346-21.803-9.563-6.344-9.474-2.844-23.997 7.734-38.709-10.578-14.712-14.078-29.235-7.734-38.709z" fill="#fce06a"/></g></g><g><path d="m59.345 69.386c0-19.415-12.389-35.154-27.673-35.154-15.283 0-27.672 15.739-27.672 35.154 0 16.119 8.55 29.671 20.195 33.82l-6.184 104.064c-.467 7.864 5.784 14.498 13.662 14.498s14.129-6.634 13.662-14.498l-6.185-104.064c11.645-4.148 20.195-17.701 20.195-33.82z" fill="#f4efed"/></g><g><path d="m217.23 81.011c3.548 0 6.423-2.876 6.423-6.423v-38.252c0-2.024 1.48-3.831 3.494-4.024 2.311-.221 4.256 1.591 4.256 3.857v38.419c0 3.547 2.876 6.423 6.423 6.423 3.548 0 6.423-2.876 6.423-6.423v-38.252c0-2.024 1.479-3.831 3.494-4.024 2.311-.221 4.256 1.591 4.256 3.857v54.138c0 4.563-3.699 8.262-8.262 8.262h-9.123l6.552 110.238c.459 7.726-5.391 14.607-13.126 14.888-8.117.295-14.651-6.455-14.174-14.488l6.575-110.638h-9.123c-4.563 0-8.262-3.699-8.262-8.262v-53.971c0-2.024 1.479-3.831 3.494-4.024 2.311-.221 4.256 1.591 4.256 3.857v38.419c.001 3.548 2.877 6.423 6.424 6.423z" fill="#f4efed"/></g><g><path d="m247.744 32.313c-2.015.192-3.494 2-3.494 4.024v38.252 15.719c0 4.563-3.699 8.262-8.262 8.262h7.75c4.563 0 8.262-3.699 8.262-8.262v-54.138c0-2.266-1.945-4.078-4.256-3.857z" fill="#d6d1cf"/></g><g><path d="m234.615 98.57c-4.204 0-7.54 3.54-7.29 7.736l6.092 102.502c.391 6.573-3.792 12.518-9.81 14.324 1.585.473 3.291.672 5.068.527 7.472-.61 12.937-7.367 12.492-14.85z" fill="#d6d1cf"/></g><g><path d="m227.545 225.705c-4.217 0-8.283-1.702-11.233-4.721-3.084-3.156-4.702-7.491-4.44-11.895l6.449-108.519h-7.001c-5.658 0-10.262-4.604-10.262-10.262v-53.972c0-3.089 2.33-5.73 5.304-6.014 1.657-.156 3.3.389 4.523 1.5 1.223 1.112 1.924 2.696 1.924 4.348v38.419c0 2.439 1.984 4.423 4.423 4.423 2.438 0 4.423-1.984 4.423-4.423v-38.253c0-3.088 2.33-5.73 5.304-6.014 1.655-.158 3.3.389 4.523 1.5s1.924 2.696 1.924 4.348v38.419c0 2.439 1.984 4.423 4.424 4.423 2.438 0 4.423-1.984 4.423-4.423v-38.253c0-3.088 2.33-5.73 5.304-6.014 1.657-.158 3.3.389 4.523 1.5s1.924 2.696 1.924 4.348v54.138c0 5.659-4.604 10.262-10.263 10.262h-7l6.425 108.12c.26 4.35-1.27 8.694-4.198 11.916-2.845 3.131-6.698 4.938-10.851 5.089-.193.006-.384.01-.572.01zm-20.614-191.41c-.063 0-.125.003-.188.009-.944.09-1.685.983-1.685 2.033v53.971c0 3.453 2.809 6.262 6.262 6.262h9.123c.551 0 1.078.228 1.455.628.378.401.574.94.541 1.49l-6.575 110.638c-.194 3.281 1.012 6.511 3.309 8.862 2.331 2.385 5.468 3.634 8.797 3.509 3.066-.111 5.92-1.455 8.034-3.781 2.208-2.43 3.362-5.706 3.167-8.989l-6.551-110.238c-.033-.55.163-1.089.541-1.49.377-.401.904-.628 1.455-.628h9.122c3.453 0 6.263-2.809 6.263-6.262v-54.139c0-.535-.219-1.028-.614-1.389-.396-.359-.918-.526-1.451-.478-.944.09-1.685.983-1.685 2.033v38.252c0 4.645-3.778 8.423-8.423 8.423s-8.424-3.778-8.424-8.423v-38.418c0-.535-.219-1.028-.614-1.389-.396-.359-.915-.526-1.451-.478-.944.09-1.685.983-1.685 2.033v38.252c0 4.645-3.778 8.423-8.423 8.423s-8.423-3.778-8.423-8.423v-38.418c0-.535-.219-1.028-.615-1.388-.349-.318-.792-.487-1.262-.487z" fill="#690589"/></g><g><path d="m4 69.386c0 16.119 8.55 29.671 20.195 33.82l-6.184 104.064c-.467 7.864 5.784 14.498 13.662 14.498 1.35 0 2.646-.208 3.875-.57-5.942-1.752-10.174-7.411-9.787-13.928l5.984-100.693c.115-1.934-.944-3.729-2.668-4.612-10.154-5.204-17.327-17.815-17.327-32.579 0-17.744 10.35-32.409 23.797-34.804-1.267-.226-2.559-.35-3.875-.35-15.283 0-27.672 15.739-27.672 35.154z" fill="#fff"/></g><g><path d="m31.673 223.768c-4.366 0-8.421-1.75-11.415-4.928-2.995-3.178-4.502-7.33-4.243-11.689l6.098-102.613c-11.915-5.068-20.113-19.264-20.113-35.152 0-20.487 13.311-37.154 29.673-37.154 16.361 0 29.672 16.667 29.672 37.154 0 15.888-8.198 30.084-20.112 35.152l6.098 102.613c.26 4.359-1.247 8.51-4.241 11.688-2.996 3.179-7.051 4.929-11.417 4.929zm0-187.536c-14.156 0-25.673 14.873-25.673 33.154 0 14.846 7.758 27.979 18.866 31.936.838.298 1.378 1.114 1.325 2.002l-6.185 104.064c-.192 3.247.931 6.34 3.162 8.708s5.251 3.671 8.504 3.671 6.273-1.304 8.504-3.672 3.354-5.46 3.161-8.708l-6.185-104.064c-.053-.888.487-1.704 1.325-2.002 11.108-3.958 18.866-17.09 18.866-31.936.002-18.28-11.515-33.153-25.67-33.153z" fill="#690589"/></g><g><path d="m27.565 179.167c-.04 0-.08-.001-.121-.003-1.102-.066-1.943-1.013-1.877-2.115l.714-12c.064-1.103.994-1.949 2.115-1.878 1.103.066 1.943 1.013 1.877 2.115l-.714 12c-.062 1.062-.944 1.881-1.994 1.881z" fill="#690589"/></g><g><path d="m128 199.568c-10.082 0-19.445-7.629-26.367-21.482-6.701-13.412-10.392-31.199-10.392-50.086s3.69-36.674 10.392-50.086c6.922-13.853 16.285-21.483 26.367-21.483 10.081 0 19.445 7.629 26.366 21.483 6.701 13.412 10.392 31.199 10.392 50.086s-3.69 36.674-10.392 50.086c-6.921 13.853-16.285 21.482-26.366 21.482zm0-139.136c-18.064 0-32.759 30.311-32.759 67.568s14.695 67.568 32.759 67.568c18.063 0 32.758-30.311 32.758-67.568s-14.695-67.568-32.758-67.568z" fill="#690589"/></g><g><path d="m162.861 178.304c-2.507 0-5.148-.174-7.915-.526-14.873-1.895-31.706-8.726-47.399-19.235-15.692-10.509-28.419-23.472-35.835-36.503-7.659-13.459-8.788-25.484-3.179-33.861 5.61-8.377 17.159-11.911 32.521-9.955 14.873 1.895 31.706 8.726 47.399 19.235 15.692 10.509 28.419 23.472 35.835 36.503 7.659 13.459 8.788 25.484 3.179 33.861-4.6 6.867-13.193 10.481-24.606 10.481zm-69.763-96.612c-10.004 0-17.415 2.999-21.24 8.711-4.723 7.052-3.54 17.584 3.331 29.658 7.114 12.502 19.397 24.987 34.585 35.158 15.187 10.17 31.409 16.772 45.679 18.59 13.776 1.755 23.968-1.162 28.69-8.213 4.723-7.052 3.54-17.585-3.331-29.658-7.114-12.502-19.396-24.987-34.585-35.158-15.187-10.17-31.409-16.772-45.679-18.59-2.616-.333-5.106-.498-7.45-.498z" fill="#690589"/></g><g><path d="m93.139 178.304c-11.414 0-20.006-3.613-24.605-10.482-5.609-8.377-4.48-20.402 3.179-33.861 7.416-13.031 20.143-25.994 35.835-36.503 15.693-10.509 32.526-17.34 47.399-19.235 15.36-1.957 26.911 1.579 32.52 9.955 5.609 8.377 4.48 20.402-3.179 33.861-7.416 13.031-20.143 25.994-35.835 36.503-15.693 10.509-32.526 17.34-47.399 19.235-2.766.352-5.41.527-7.915.527zm69.763-96.612c-2.346 0-4.833.165-7.45.499-14.27 1.818-30.492 8.42-45.679 18.59-15.188 10.17-27.471 22.656-34.585 35.158-6.871 12.073-8.054 22.606-3.331 29.658s14.914 9.969 28.69 8.213c14.27-1.818 30.492-8.42 45.679-18.59 15.188-10.17 27.471-22.656 34.585-35.158 6.871-12.073 8.054-22.606 3.331-29.658-3.825-5.713-11.237-8.712-21.24-8.712z" fill="#690589"/></g><g><circle cx="128" cy="128" fill="#7bac51" r="11.353"/></g><g><path d="m128 141.353c-7.362 0-13.353-5.99-13.353-13.353s5.99-13.353 13.353-13.353c7.362 0 13.352 5.99 13.352 13.353s-5.99 13.353-13.352 13.353zm0-22.706c-5.157 0-9.353 4.196-9.353 9.353s4.195 9.353 9.353 9.353c5.157 0 9.352-4.196 9.352-9.353s-4.195-9.353-9.352-9.353z" fill="#690589"/></g><g><circle cx="102.351" cy="176.272" fill="#ff4397" r="11.353"/></g><g><path d="m102.351 189.625c-7.362 0-13.353-5.99-13.353-13.353s5.99-13.353 13.353-13.353 13.354 5.99 13.354 13.353c-.001 7.363-5.991 13.353-13.354 13.353zm0-22.706c-5.157 0-9.353 4.195-9.353 9.353 0 5.157 4.195 9.353 9.353 9.353 5.157 0 9.353-4.196 9.353-9.353s-4.196-9.353-9.353-9.353z" fill="#690589"/></g><g><circle cx="153.649" cy="79.728" fill="#ff4397" r="11.353"/></g><g><path d="m153.649 93.081c-7.363 0-13.354-5.99-13.354-13.353s5.99-13.353 13.354-13.353c7.362 0 13.353 5.99 13.353 13.353s-5.99 13.353-13.353 13.353zm0-22.706c-5.157 0-9.354 4.196-9.354 9.353s4.196 9.353 9.354 9.353 9.353-4.195 9.353-9.353c0-5.157-4.195-9.353-9.353-9.353z" fill="#690589"/></g></g></svg>