<svg id="Capa_1" enable-background="new 0 0 512 512" height="512" viewBox="0 0 512 512" width="512" xmlns="http://www.w3.org/2000/svg"><g><g fill="#f07281"><path d="m480.115 40.586-49.462-32.974.002 77.597 49.46-32.974c4.156-2.771 4.156-8.878 0-11.649z"/><path d="m363.719 40.586-49.462-32.974.002 77.597 49.46-32.974c4.156-2.771 4.156-8.878 0-11.649z"/><path d="m31.944 40.586c-4.156 2.771-4.156 8.878 0 11.649l49.46 32.974.002-77.597z"/><path d="m148.34 40.586c-4.156 2.771-4.156 8.878 0 11.649l49.46 32.975.002-77.597z"/></g><g><path d="m81.406 131.62c-4.204 0-7.612-3.407-7.612-7.612v-116.396c0-4.205 3.408-7.612 7.612-7.612s7.612 3.407 7.612 7.612v116.396c-.001 4.204-3.409 7.612-7.612 7.612z" fill="#5f99d7"/></g><g><path d="m197.908 131.62c-4.204 0-7.612-3.407-7.612-7.612l.001-116.396c0-4.203 3.408-7.612 7.612-7.612 4.204 0 7.611 3.407 7.611 7.612l-.001 116.396c.001 4.204-3.407 7.612-7.611 7.612z" fill="#5f99d7"/></g><g><path d="m314.281 131.62c-4.204 0-7.611-3.407-7.611-7.612v-116.396c0-4.204 3.408-7.612 7.611-7.612 4.204 0 7.612 3.407 7.612 7.612v116.396c-.001 4.204-3.408 7.612-7.612 7.612z" fill="#5f99d7"/></g><g><path d="m430.654 131.62c-4.204 0-7.612-3.407-7.612-7.612v-116.396c0-4.204 3.408-7.612 7.612-7.612s7.612 3.407 7.612 7.612v116.396c-.001 4.204-3.409 7.612-7.612 7.612z" fill="#5f99d7"/></g><path d="m500.822 162.807h-32.831l-15.658 10h-390.666l-17.658-10h-32.831c-3.866 0-7-3.134-7-7v-24.799c0-3.866 3.134-7 7-7h489.643c3.866 0 7 3.134 7 7v24.799c.001 3.866-3.133 7-6.999 7z" fill="#eaf6ff"/><path d="m54.923 124.003v38.799h-43.744c-3.866 0-7-3.134-7-7v-24.799c0-3.866 3.134-7 7-7z" fill="#d8ecfe"/><path d="m81.406 308.002h349.188v175.195h-349.188z" fill="#5f99d7"/><path d="m430.599 308.007v30.298h-291.454c-3.866 0-7 3.134-7 7v137.897h-50.744v-175.195z" fill="#3c87d0"/><path d="m314.3 363.8v119.4h-116.4v-119.4c0-3.866 3.134-7 7-7h102.4c3.866 0 7 3.134 7 7z" fill="#8ac9fe"/><path d="m228.355 356.806v126.396h-30.446v-119.396c0-3.866 3.134-7 7-7z" fill="#60b7ff"/><g><path d="m248.49 356.8h15.22v126.4h-15.22z" fill="#eaf6ff"/></g><path d="m462.393 318.002h-412.786c-3.866 0-7-3.134-7-7v-24.799c0-3.866 3.134-7 7-7h36.8l12.724-10h313.536l12.926 10h36.8c3.866 0 7 3.134 7 7v24.799c0 3.866-3.134 7-7 7z" fill="#eaf6ff"/><path d="m93.346 279.198v38.809h-43.744c-3.866 0-7-3.134-7-7v-24.809c0-3.866 3.134-7 7-7z" fill="#d8ecfe"/><path d="m469.393 511.996h-426.786v-31.799c0-3.866 3.134-7 7-7h412.786c3.866 0 7 3.134 7 7z" fill="#eaf6ff"/><path d="m93.346 473.201v38.799h-50.744v-31.799c0-3.866 3.134-7 7-7z" fill="#d8ecfe"/><path d="m383.195 162.807h-85.001-13.488-71.104-.205-84.592-84.796l42.398 116.396h67.837 67.674.163 47.42 20.254 68.001 67.837l42.398-116.396z" fill="#5f99d7"/><path d="m396.893 258.9c-4.468 0-7.793-4.13-6.839-8.495l19.151-87.604h-26.011l-21.006 96.099h-34.296c-4.066 0-7.277-3.453-6.981-7.509l6.456-88.59h-28.965l-7.005 96.098h-32.524c-3.667 0-6.713-2.831-6.981-6.488l-6.568-89.61h-31.928l7.038 96.098h-30.104c-3.29 0-6.136-2.291-6.839-5.505l-19.804-90.593h-34.881l21.006 96.098h-28.061c-2.942 0-5.57-1.84-6.577-4.604l-33.326-91.494h-37.835l42.391 116.396h339.191l7.388-20.297z" fill="#3c87d0"/></g></svg>